<svg width="96" height="96" viewBox="0 0 96 96" fill="none" xmlns="http://www.w3.org/2000/svg">
<path d="M86.9998 78C86.9997 78.7956 86.6836 79.5587 86.121 80.1213C85.5584 80.6839 84.7954 81 83.9998 81H11.9998C11.2041 81 10.4411 80.6839 9.87848 80.1213C9.31588 79.5587 8.99979 78.7956 8.99976 78V18C8.99976 17.2044 9.31583 16.4413 9.87844 15.8787C10.441 15.3161 11.2041 15 11.9998 15C12.7954 15 13.5585 15.3161 14.1211 15.8787C14.6837 16.4413 14.9998 17.2044 14.9998 18V58.7582L33.8794 39.8785C34.4421 39.316 35.2052 38.9999 36.0009 38.9999C36.7965 38.9999 37.5596 39.316 38.1223 39.8785L48.0009 49.7574L66.2581 31.5L60.8794 26.1213C60.4599 25.7017 60.1743 25.1671 60.0586 24.5852C59.9429 24.0033 60.0023 23.4001 60.2294 22.852C60.4564 22.3038 60.8409 21.8353 61.3342 21.5057C61.8276 21.176 62.4075 21 63.0009 21H78.0009C78.7965 21 79.5595 21.3161 80.1221 21.8787C80.6847 22.4413 81.0008 23.2044 81.0009 24V39C81.0008 39.5934 80.8249 40.1734 80.4952 40.6667C80.1656 41.1601 79.697 41.5446 79.1488 41.7717C78.6006 41.9987 77.9974 42.0581 77.4155 41.9423C76.8335 41.8266 76.299 41.5408 75.8794 41.1213L70.5009 35.7428L50.1223 56.1215C49.5596 56.6841 48.7965 57.0001 48.0009 57.0001C47.2052 57.0001 46.4421 56.6841 45.8794 56.1215L36.0009 46.2426L14.9998 67.244V75H83.9998C84.7954 75 85.5584 75.3161 86.121 75.8787C86.6836 76.4413 86.9997 77.2044 86.9998 78Z" fill="#2C2C2C"/>
</svg>
